<svg id="logoSVG__container" width="100%" height="100%" viewBox="0 0 591 228" fill="none" xmlns="http://www.w3.org/2000/svg">
<g clip-path="url(#clip0)">
<path class="logoSVG" d="M199.664 46.2053C195.265 46.1991 189.88 48.4111 184.928 53.6763L152.658 87.9344L31.178 112.051L24.5095 120.915L97.2575 120.257C93.3899 125.808 99.5813 128.592 104.439 124.786L110.362 120.141L125.517 120.025C121.289 125.132 117.167 130.422 113.113 135.818C112.406 134.773 111.303 133.813 110.222 133.341C107.87 132.315 103.931 132.379 102.294 134.115L92.1279 144.915C90.192 146.969 91.5233 150.969 93.9932 152.58C95.6366 153.652 98.543 153.781 100.662 153.044C96.173 159.504 91.7364 166.044 87.3713 172.709L59.671 172.902C59.671 172.902 47.1668 182.624 46.1007 183.509L78.5575 186.49C77.0722 188.814 75.5607 191.124 74.0807 193.457C76.1985 191.747 78.2556 190.026 80.3297 188.309L86.0655 211.38L98.33 203.638L93.5269 177.122C99.9057 171.579 106.091 166.029 112.18 160.438C111.899 162.491 113.101 165.012 114.932 166.206C117.217 167.696 121.946 167.374 123.605 165.393L134.331 152.58C135.758 150.875 133.327 147.932 131.113 146.967C130.047 146.502 128.689 146.27 127.336 146.309C133.164 140.797 138.924 135.264 144.684 129.741L148.181 137.018L143.098 143.251C138.472 148.931 145.035 152.018 150 148.128L152.565 146.154L182.783 209.173L190.244 203.638L170.518 102.76L204.094 64.2828C212.84 54.2576 208.064 46.2167 199.664 46.2053V46.2053Z" fill="white"/>
</g>
<path class="logoSVG" d="M260.113 129.855H251.578V153H244.723V129.855H236.344V124.562H260.113V129.855ZM273.59 142.961H269.879V153H263.023V124.562H274.215C277.587 124.562 280.224 125.311 282.125 126.809C284.026 128.306 284.977 130.422 284.977 133.156C284.977 135.135 284.573 136.776 283.766 138.078C282.971 139.38 281.721 140.435 280.016 141.242L285.953 152.707V153H278.609L273.59 142.961ZM269.879 137.668H274.215C275.517 137.668 276.493 137.329 277.145 136.652C277.809 135.962 278.141 135.005 278.141 133.781C278.141 132.557 277.809 131.6 277.145 130.91C276.48 130.207 275.504 129.855 274.215 129.855H269.879V137.668ZM305.27 147.688H295.875L294.234 153H286.91L297.34 124.562H303.785L314.293 153H306.93L305.27 147.688ZM297.516 142.395H303.629L300.562 132.531L297.516 142.395ZM325.895 145.266L331.559 124.562H339.215L329.645 153H322.145L312.652 124.562H320.25L325.895 145.266ZM358.941 140.949H348.16V147.727H360.895V153H341.305V124.562H360.934V129.855H348.16V135.852H358.941V140.949ZM370.543 147.727H382.477V153H363.688V124.562H370.543V147.727ZM418.609 149.484C417.555 150.656 416.012 151.6 413.98 152.316C411.949 153.033 409.723 153.391 407.301 153.391C403.577 153.391 400.602 152.251 398.375 149.973C396.148 147.694 394.957 144.523 394.801 140.461L394.781 138C394.781 135.201 395.276 132.759 396.266 130.676C397.255 128.579 398.668 126.971 400.504 125.852C402.353 124.719 404.488 124.152 406.91 124.152C410.452 124.152 413.199 124.966 415.152 126.594C417.118 128.208 418.264 130.624 418.59 133.84H411.988C411.754 132.251 411.246 131.118 410.465 130.441C409.684 129.764 408.577 129.426 407.145 129.426C405.426 129.426 404.098 130.155 403.16 131.613C402.223 133.072 401.747 135.155 401.734 137.863V139.582C401.734 142.421 402.216 144.556 403.18 145.988C404.156 147.408 405.686 148.117 407.77 148.117C409.553 148.117 410.882 147.72 411.754 146.926V142.512H406.988V137.805H418.609V149.484ZM444.898 124.562V143.176C444.898 145.285 444.449 147.115 443.551 148.664C442.652 150.201 441.363 151.372 439.684 152.18C438.004 152.987 436.018 153.391 433.727 153.391C430.263 153.391 427.535 152.492 425.543 150.695C423.551 148.898 422.535 146.438 422.496 143.312V124.562H429.391V143.449C429.469 146.561 430.914 148.117 433.727 148.117C435.146 148.117 436.22 147.727 436.949 146.945C437.678 146.164 438.043 144.895 438.043 143.137V124.562H444.898ZM456.5 153H449.664V124.562H456.5V153ZM461.266 153V124.562H470.426C472.939 124.562 475.198 125.135 477.203 126.281C479.208 127.414 480.771 129.022 481.891 131.105C483.023 133.176 483.596 135.5 483.609 138.078V139.387C483.609 141.991 483.056 144.328 481.949 146.398C480.855 148.456 479.306 150.07 477.301 151.242C475.309 152.401 473.082 152.987 470.621 153H461.266ZM468.121 129.855V147.727H470.504C472.47 147.727 473.98 147.03 475.035 145.637C476.09 144.23 476.617 142.147 476.617 139.387V138.156C476.617 135.409 476.09 133.339 475.035 131.945C473.98 130.552 472.444 129.855 470.426 129.855H468.121ZM504.762 140.949H493.98V147.727H506.715V153H487.125V124.562H506.754V129.855H493.98V135.852H504.762V140.949Z" fill="white"/>
<defs>
<clipPath id="clip0">
<rect width="169" height="178" fill="white" transform="translate(47 27)"/>
</clipPath>
</defs>
</svg>
